#!OML:ASF H:\Not Pregnant\Project 1\Capture day 1\Session 1\non-pregnant.ASF
:FULLY-SPECIFIED
:DEGREES
1293
root -5.58685 16.1946 34.9112 179.802 -71.662 -162.823
lowerback -8.42242 2.27523 3.00172
upperback -4.98648 2.62355 -0.440471
thorax -0.288009 1.16353 -1.92403
lowerneck 10.1567 -5.1935 -30.7548
upperneck -6.80086 -11.0467 42.2973
head 1.18985 -7.44785 23.1379
rclavicle 3.49613e-014 -7.15625e-015
rhumerus -38.4205 -16.5586 -77.484
rradius 19.5119
rwrist 31.5945
rhand -13.4424 -1.30509
rfingers 7.12502
rthumb 12.6667 -30.901
lclavicle 3.49613e-014 -7.15625e-015
lhumerus -39.5321 -21.42 96.9022
lradius 40.448
lwrist 40.0567
lhand -11.1246 -12.854
lfingers 7.12502
lthumb 14.9005 16.5901
rfemur -26.2653 2.10746 20.143
rtibia 23.8831
rfoot -16.6866 29.3744
rtoes -3.10688
lfemur -23.1389 7.74102 -15.063
ltibia 23.7726
lfoot -17.6184 0.0250149
ltoes -24.7568
1294
root -5.59785 16.1949 34.935 179.755 -71.5095 -162.727
lowerback -8.50185 2.32258 2.93398
upperback -4.9939 2.68723 -0.444115
thorax -0.251258 1.19656 -1.88171
lowerneck 10.2662 -5.23902 -30.7
upperneck -6.94461 -11.12 42.3647
head 1.16756 -7.50729 23.1704
rclavicle -3.88376e-014 -1.03368e-014
rhumerus -38.8283 -16.6408 -77.5238
rradius 19.1136
rwrist 33.0606
rhand -12.5833 -0.867375
rfingers 7.12502
rthumb 13.4948 -30.4102
lclavicle -3.88376e-014 -1.03368e-014
lhumerus -39.7192 -21.3005 96.7204
lradius 40.3081
lwrist 39.9438
lhand -11.4703 -13.062
lfingers 7.12502
lthumb 14.5674 16.4065
rfemur -26.3118 1.57534 20.2806
rtibia 23.858
rfoot -16.4399 29.9374
rtoes -2.59306
lfemur -23.1736 8.1913 -15.1655
ltibia 23.7868
lfoot -17.7705 -0.359322
ltoes -24.344
1295
root -5.60749 16.1949 34.958 179.686 -71.3756 -162.609
lowerback -8.57574 2.35465 2.85331
upperback -4.99782 2.73188 -0.435072
thorax -0.216246 1.22056 -1.82076
lowerneck 10.3734 -5.28241 -30.6466
upperneck -7.09023 -11.1877 42.4257
head 1.14207 -7.56289 23.1991
rclavicle -1.17034e-014 3.97569e-015
rhumerus -39.1874 -16.6452 -77.6024
rradius 18.7507
rwrist 34.5644
rhand -11.6679 -0.428338
rfingers 7.12502
rthumb 14.377 -29.9105
lclavicle -1.17034e-014 3.97569e-015
lhumerus -39.8601 -21.0751 96.4813
lradius 40.1486
lwrist 39.877
lhand -11.7623 -13.1894
lfingers 7.12502
lthumb 14.2861 16.2991
rfemur -26.3571 1.08564 20.4226
rtibia 23.8414
rfoot -16.222 30.3958
rtoes -2.18602
lfemur -23.2147 8.56808 -15.2481
ltibia 23.8092
lfoot -17.9066 -0.688481
ltoes -23.929
1296
root -5.61591 16.1949 34.9804 179.607 -71.264 -162.48
lowerback -8.64101 2.38313 2.77499
upperback -5.0013 2.77216 -0.427507
thorax -0.185725 1.24229 -1.76327
lowerneck 10.4871 -5.3273 -30.5875
upperneck -7.24349 -11.2562 42.4872
head 1.11333 -7.61986 23.2269
rclavicle 6.31141e-015 -7.95139e-016
rhumerus -39.5268 -16.7647 -77.6017
rradius 18.4257
rwrist 36.1775
rhand -10.6403 -0.12249
rfingers 7.12502
rthumb 15.367 -29.5314
lclavicle 6.31141e-015 -7.95139e-016
lhumerus -39.972 -20.8024 96.1941
lradius 39.9726
lwrist 39.8671
lhand -12.0066 -13.2671
lfingers 7.12502
lthumb 14.0506 16.2379
rfemur -26.3987 0.642178 20.5625
rtibia 23.8281
rfoot -16.0471 30.7355
rtoes -1.92068
lfemur -23.263 8.86174 -15.3157
ltibia 23.8364
lfoot -18.0213 -0.947958
ltoes -23.5396
1297
root -5.62303 16.195 35.0025 179.512 -71.1745 -162.334
lowerback -8.69704 2.40436 2.70263
upperback -5.00401 2.8029 -0.415886
thorax -0.160014 1.25918 -1.70605
lowerneck 10.601 -5.36837 -30.5328
upperneck -7.40022 -11.3171 42.5446
head 1.08008 -7.67226 23.2547
rclavicle 1.41386e-014 -1.35174e-014
rhumerus -39.8494 -17.091 -77.4358
rradius 18.14
rwrist 37.8503
rhand -9.49306 -0.0861277
rfingers 7.12502
rthumb 16.4718 -29.4069
lclavicle 1.41386e-014 -1.35174e-014
lhumerus -40.057 -20.4727 95.8697
lradius 39.7687
lwrist 39.8828
lhand -12.2091 -13.3312
lfingers 7.12502
lthumb 13.8555 16.1873
rfemur -26.4366 0.246177 20.6995
rtibia 23.816
rfoot -15.9118 30.9597
rtoes -1.77766
lfemur -23.3175 9.06133 -15.3661
ltibia 23.8655
lfoot -18.1087 -1.12027
ltoes -23.2359
1298
root -5.62894 16.1956 35.0232 179.429 -71.0863 -162.198
lowerback -8.74882 2.42932 2.62444
upperback -5.00603 2.83941 -0.408313
thorax -0.135827 1.27905 -1.64934
lowerneck 10.7233 -5.40897 -30.4838
upperneck -7.5648 -11.3798 42.6114
head 1.04553 -7.72754 23.2933
rclavicle -1.97791e-014 8.74653e-015
rhumerus -40.1844 -17.7611 -77.0294
rradius 17.9031
rwrist 39.5035
rhand -8.25643 -0.430227
rfingers 7.12502
rthumb 17.6621 -29.648
lclavicle -1.97791e-014 8.74653e-015
lhumerus -40.1229 -20.1282 95.5197
lradius 39.5304
lwrist 39.8969
lhand -12.4207 -13.4047
lfingers 7.12502
lthumb 13.6516 16.1276
rfemur -26.4716 -0.0329348 20.8153
rtibia 23.8023
rfoot -15.808 31.0222
rtoes -1.76286
lfemur -23.3727 9.16323 -15.3984
ltibia 23.8954
lfoot -18.1661 -1.18439
ltoes -23.012
1299
root -5.63353 16.1964 35.0429 179.337 -71.012 -162.05
lowerback -8.79548 2.45257 2.54803
upperback -5.00922 2.87383 -0.402785
thorax -0.115694 1.29775 -1.5961
lowerneck 10.8555 -5.45031 -30.4393
upperneck -7.7326 -11.4478 42.6863
head 1.01178 -7.78747 23.3407
rclavicle 7.95139e-016 3.73715e-014
rhumerus -40.5228 -18.6805 -76.4423
rradius 17.7256
rwrist 40.8235
rhand -7.06365 -1.20736
rfingers 7.12502
rthumb 18.8096 -30.3179
lclavicle 7.95139e-016 3.73715e-014
lhumerus -40.1748 -19.7705 95.1466
lradius 39.2627
lwrist 39.9111
lhand -12.656 -13.4757
lfingers 7.12502
lthumb 13.4247 16.0717
rfemur -26.506 -0.246762 20.9261
rtibia 23.7873
rfoot -15.7448 30.9623
rtoes -1.88764
lfemur -23.4351 9.18414 -15.4137
ltibia 23.925
lfoot -18.1962 -1.16521
ltoes -22.8756
1300
root -5.63674 16.1977 35.0618 179.22 -70.954 -161.875
lowerback -8.83573 2.46887 2.46661
upperback -5.01093 2.89968 -0.3885
thorax -0.0987281 1.3124 -1.53201
lowerneck 10.9925 -5.49588 -30.4076
upperneck -7.90135 -11.5264 42.7662
head 0.983567 -7.8538 23.3951
rclavicle -6.48535e-015 -9.54166e-015
rhumerus -40.827 -19.6523 -75.81
rradius 17.6104
rwrist 41.4342
rhand -6.15385 -2.43553
rfingers 7.12502
rthumb 19.6845 -31.4589
lclavicle -6.48535e-015 -9.54166e-015
lhumerus -40.2067 -19.3864 94.7575
lradius 38.9663
lwrist 39.9229
lhand -12.9116 -13.5372
lfingers 7.12502
lthumb 13.1784 16.0263
rfemur -26.5386 -0.393026 21.0351
rtibia 23.7735
rfoot -15.7013 30.7819
rtoes -2.10478
lfemur -23.5034 9.13219 -15.4068
ltibia 23.9543
lfoot -18.1984 -1.08569
ltoes -22.7783
1301
root -5.63876 16.1993 35.0799 179.117 -70.9084 -161.713
lowerback -8.87029 2.4896 2.37
upperback -5.01276 2.93306 -0.381671
thorax -0.0851046 1.33104 -1.46665
lowerneck 11.1527 -5.55306 -30.3659
upperneck -8.08614 -11.6264 42.8588
head 0.956972 -7.93546 23.4547
rclavicle 6.90777e-015 -1.11319e-014
rhumerus -41.072 -20.5076 -75.2954
rradius 17.5613
rwrist 41.038
rhand -5.77456 -4.00818
rfingers 7.12502
rthumb 20.0491 -32.9938
lclavicle 6.90777e-015 -1.11319e-014
lhumerus -40.2143 -19.0072 94.3519
lradius 38.634
lwrist 39.9234
lhand -13.1926 -13.5745
lfingers 7.12502
lthumb 12.9075 16.0063
rfemur -26.5734 -0.494671 21.1329
rtibia 23.7628
rfoot -15.6524 30.5182
rtoes -2.35689
lfemur -23.5783 9.01717 -15.3943
ltibia 23.9854
lfoot -18.1766 -0.948901
ltoes -22.7417
1302
root -5.63968 16.2011 35.0974 179.011 -70.878 -161.548
lowerback -8.89844 2.50268 2.26251
upperback -5.01591 2.95729 -0.369142
thorax -0.0776951 1.3453 -1.39045
lowerneck 11.3246 -5.61165 -30.3492
upperneck -8.27171 -11.7389 42.966
head 0.937634 -8.02612 23.5345
rclavicle 3.83903e-014 -3.97569e-015
rhumerus -41.193 -21.0028 -75.0636
rradius 17.5741
rwrist 39.4763
rhand -6.00411 -5.70308
rfingers 7.12502
rthumb 19.8284 -34.7116
lclavicle 3.83903e-014 -3.97569e-015
lhumerus -40.2048 -18.5991 93.9318
lradius 38.2696
lwrist 39.9198
lhand -13.4806 -13.6004
lfingers 7.12502
lthumb 12.6299 15.9978
rfemur -26.6108 -0.56941 21.2296
rtibia 23.7587
rfoot -15.6024 30.1837
rtoes -2.64838
lfemur -23.6627 8.87034 -15.377
ltibia 24.0199
lfoot -18.1389 -0.790487
ltoes -22.7456
1303
root -5.63984 16.2031 35.1147 178.881 -70.8654 -161.365
lowerback -8.91363 2.50434 2.15572
upperback -5.02047 2.96669 -0.350297
thorax -0.0798479 1.35211 -1.31005
lowerneck 11.4993 -5.67037 -30.321
upperneck -8.45172 -11.849 43.058
head 0.915179 -8.11418 23.5985
rclavicle -1.41634e-014 -3.10104e-014
rhumerus -41.162 -21.0522 -75.1673
rradius 17.6358
rwrist 36.8817
rhand -6.78099 -7.24199
rfingers 7.12502
rthumb 19.0814 -36.326
lclavicle -1.41634e-014 -3.10104e-014
lhumerus -40.1768 -18.1401 93.4898
lradius 37.8649
lwrist 39.9024
lhand -13.766 -13.6257
lfingers 7.12502
lthumb 12.3547 15.9892
rfemur -26.6426 -0.651973 21.3372
rtibia 23.7634
rfoot -15.5574 29.8053
rtoes -2.97865
lfemur -23.7485 8.71117 -15.3531
ltibia 24.059
lfoot -18.0968 -0.658556
ltoes -22.6022
1304
root -5.63902 16.205 35.1318 178.743 -70.8585 -161.178
lowerback -8.91371 2.49462 2.05044
upperback -5.02553 2.96128 -0.323775
thorax -0.0917095 1.35151 -1.22458
lowerneck 11.6591 -5.7213 -30.3036
upperneck -8.61163 -11.9483 43.1416
head 0.89592 -8.19384 23.6602
rclavicle -1.02871e-014 -5.56597e-015
rhumerus -41.0001 -20.7259 -75.5295
rradius 17.7503
rwrist 33.6836
rhand -7.8137 -8.39989
rfingers 7.12502
rthumb 18.0881 -37.5788
lclavicle -1.02871e-014 -5.56597e-015
lhumerus -40.131 -17.6233 93.0246
lradius 37.4267
lwrist 39.8766
lhand -14.0466 -13.6472
lfingers 7.12502
lthumb 12.0842 15.9839
rfemur -26.6703 -0.741133 21.4542
rtibia 23.7743
rfoot -15.5238 29.3902
rtoes -3.36769
lfemur -23.8382 8.5499 -15.3265
ltibia 24.1085
lfoot -18.053 -0.53139
ltoes -22.4797
1305
root -5.63774 16.2068 35.1491 178.573 -70.8627 -160.971
lowerback -8.89592 2.48179 1.97287
upperback -5.03106 2.95036 -0.302577
thorax -0.112423 1.34758 -1.1613
lowerneck 11.8131 -5.76607 -30.2765
upperneck -8.75854 -12.0359 43.2153
head 0.873626 -8.26586 23.7126
rclavicle -1.15792e-014 -2.38542e-015
rhumerus -40.7531 -20.1346 -76.0595
rradius 17.9227
rwrist 30.337
rhand -8.84223 -9.09825
rfingers 7.12502
rthumb 17.0983 -38.3659
lclavicle -1.15792e-014 -2.38542e-015
lhumerus -40.0776 -17.0876 92.5379
lradius 36.963
lwrist 39.8455
lhand -14.3206 -13.6698
lfingers 7.12502
lthumb 11.82 15.9766
rfemur -26.6843 -0.852346 21.586
rtibia 23.7881
rfoot -15.5009 28.9475
rtoes -3.80187
lfemur -23.9287 8.41232 -15.2994
ltibia 24.1712
lfoot -18.0198 -0.439835
ltoes -22.3552
1306
root -5.63586 16.2084 35.1662 178.339 -70.8625 -160.706
lowerback -8.8616 2.46977 1.93154
upperback -5.03413 2.93848 -0.281787
thorax -0.137867 1.34261 -1.11937
lowerneck 11.9497 -5.80715 -30.2476
upperneck -8.88686 -12.1166 43.2849
head 0.855858 -8.33228 23.7606
rclavicle 3.74709e-014 6.36111e-015
rhumerus -40.4635 -19.3895 -76.6563
rradius 18.1475
rwrist 27.3779
rhand -9.6558 -9.31361
rfingers 7.12502
rthumb 16.3151 -38.6473
lclavicle 3.74709e-014 6.36111e-015
lhumerus -40.0132 -16.539 92.0294
lradius 36.4806
lwrist 39.8077
lhand -14.5713 -13.6836
lfingers 7.12502
lthumb 11.5782 15.9766
rfemur -26.6844 -0.942957 21.7416
rtibia 23.8035
rfoot -15.4877 28.45
rtoes -4.2949
lfemur -24.0174 8.30223 -15.2524
ltibia 24.2479
lfoot -17.9963 -0.366078
ltoes -22.2773
1307
root -5.63376 16.2097 35.1832 178.073 -70.8551 -160.421
lowerback -8.81661 2.46392 1.91151
upperback -5.03356 2.93382 -0.266082
thorax -0.163857 1.34096 -1.09425
lowerneck 12.0859 -5.84826 -30.2119
upperneck -9.00476 -12.1985 43.3532
head 0.840518 -8.39927 23.805
rclavicle 3.3694e-014 2.3059e-014
rhumerus -40.1816 -18.5901 -77.2388
rradius 18.4166
rwrist 25.26
rhand -10.1507 -9.08033
rfingers 7.12502
rthumb 15.8385 -38.4525
lclavicle 3.3694e-014 2.3059e-014
lhumerus -39.9413 -15.9981 91.5109
lradius 35.9844
lwrist 39.7555
lhand -14.8175 -13.6791
lfingers 7.12502
lthumb 11.3408 15.9943
rfemur -26.6675 -1.04366 21.914
rtibia 23.8173
rfoot -15.4832 27.9417
rtoes -4.82071
lfemur -24.0991 8.23479 -15.2024
ltibia 24.3362
lfoot -17.9869 -0.314525
ltoes -22.2928
